<?xml version="1.0" encoding="utf-8"?>
<!-- Generator: Adobe Illustrator 27.5.0, SVG Export Plug-In . SVG Version: 6.00 Build 0)  -->
<svg version="1.1" xmlns="http://www.w3.org/2000/svg" xmlns:xlink="http://www.w3.org/1999/xlink" x="0px" y="0px"
	 viewBox="0 0 500 500" style="enable-background:new 0 0 500 500;" xml:space="preserve">
<g id="BACKGROUND">
	<rect id="_x3C_Path_x3E_" style="fill:#FFFFFF;" width="500" height="500"/>
</g>
<g id="OBJECTS">
	<path style="fill:#E4F1FF;" d="M231.023,374.766c0,0-80.385,7.141-121.808-20.797c-42.837-28.891,24.327-76.785,0.872-126.302
		c-23.455-49.517-4.476-112.14,88.553-99.7c101.683,13.596,121.27-57.999,183.663-24.606c49.032,26.243-19.333,94.907,16.697,150.27
		c50.843,78.124-13.378,121.278-95.451,120.888C290.463,374.456,231.023,374.766,231.023,374.766z"/>
	<path style="fill:#B4D8F9;" d="M81.355,268.82c-2.463,0.812-3.697,3.593-2.994,6.09c0,0,0.861,3.097,1.347,4.882
		c0.186,0.682-0.214,1.382-0.895,1.573l-5.118,1.44c-1.583,0.446-2.506,2.09-2.06,3.673l0.11,0.392
		c0.473,1.679,2.218,2.658,3.898,2.185l0.831-0.234c0.819-0.231,1.67,0.247,1.901,1.066l0.858,3.05
		c0.235,0.835-0.251,1.701-1.086,1.936l-0.917,0.258c-1.617,0.455-2.559,2.135-2.104,3.752l0.149,0.528
		c0.442,1.57,2.074,2.486,3.644,2.043l5.095-1.434c0.723-0.203,1.474,0.218,1.677,0.941l3.891,13.825l-1.676,0.472
		c-1.093,0.308-1.73,1.443-1.423,2.537l0.346,1.23c0.308,1.093,1.443,1.73,2.537,1.423l1.676-0.472l0.933,3.316l-1.676,0.472
		c-1.093,0.308-1.73,1.444-1.423,2.537l0.346,1.23c0.308,1.094,1.443,1.73,2.536,1.422l1.676-0.472l2.509,8.915
		c0.006,0.021-0.004,0.044-0.024,0.053c-9.582,4.66-15.008,14.437-12.431,23.596c2.959,10.514,15.342,16.227,27.658,12.761
		c12.316-3.466,19.901-14.799,16.942-25.313c-2.582-9.172-12.336-14.688-22.96-13.646c-0.022,0.002-0.042-0.011-0.048-0.033
		l-2.507-8.905l1.72-0.484c1.093-0.308,1.73-1.443,1.423-2.537l-0.346-1.23c-0.308-1.093-1.443-1.73-2.537-1.422l-1.721,0.484
		l-0.933-3.316l1.72-0.484c1.093-0.308,1.73-1.443,1.423-2.537l-0.347-1.23c-0.308-1.094-1.443-1.73-2.536-1.423l-1.721,0.484
		l-11.307-40.174C86.687,269.449,83.94,267.968,81.355,268.82z M119.686,350.86c1.844,6.551-2.882,13.612-10.555,15.771
		c-7.673,2.16-15.388-1.4-17.232-7.951c-1.844-6.55,2.882-13.611,10.555-15.771C110.128,340.751,117.843,344.31,119.686,350.86z"/>
	<g>
		<path style="fill:#DE001D;" d="M80.181,204.986c1.507,0,2.728,1.221,2.728,2.728c0,1.507-1.221,2.728-2.728,2.728
			c-1.507,0-2.728-1.221-2.728-2.728C77.453,206.208,78.674,204.986,80.181,204.986z"/>
		<path style="fill:#DE001D;" d="M80.181,195.678c1.507,0,2.728,1.221,2.728,2.728c0,1.507-1.221,2.728-2.728,2.728
			c-1.507,0-2.728-1.221-2.728-2.728C77.453,196.9,78.674,195.678,80.181,195.678z"/>
		<path style="fill:#DE001D;" d="M80.181,186.481c1.507,0,2.728,1.221,2.728,2.728c0,1.507-1.221,2.728-2.728,2.728
			c-1.507,0-2.728-1.222-2.728-2.728C77.453,187.702,78.674,186.481,80.181,186.481z"/>
	</g>
	<g>
		<g id="_x3C_Group_x3E__00000042703597579510276690000005560287039435401112_">
			<path id="_x3C_Path_x3E__00000085959302498653852580000007481775707734441143_" style="fill:#9FCCFB;" d="M360.533,374.498
				c0,0,1.911-16.706,12.22-16.21c5.978,0.288,2.087-9.352,6.129-10.989c4.042-1.637,8.971,2.12,11.705-1.978
				c2.734-4.098,6.971-7.2,13.225-3.718c6.255,3.482,9.896-2.787,13.802,3.312c3.906,6.098-3.706,11.101-12.094,10.861
				c-8.388-0.24-5.294,8.342-13.401,7.273c-8.107-1.069-5.876,9.841-12.535,9.129c-4.669-0.499-6.059,3.07-9.033,2.584
				C369.286,374.555,363.778,375.444,360.533,374.498z"/>
			<g id="_x3C_Path_x3E__00000163041180852966902100000014150796040795909543_">
				<path id="_x3C_Path_x3E__00000136393474955911298790000001197762487420127417_" style="fill:#FFFFFF;" d="M374.718,363.385
					c0.001-0.012,0.003-0.024,0.007-0.036c0.02-0.07,2.13-6.966,10.678-8.164c5.835-0.818,7.342-1.886,9.429-3.365
					c0.922-0.653,1.966-1.394,3.541-2.209c5.076-2.628,12.044-0.453,12.338-0.359c0.11,0.035,0.171,0.152,0.135,0.262
					c-0.035,0.109-0.152,0.17-0.262,0.135c-0.07-0.023-7.1-2.216-12.02,0.332c-1.549,0.802-2.581,1.533-3.491,2.179
					c-2.054,1.456-3.676,2.606-9.611,3.438c-8.274,1.16-10.317,7.802-10.336,7.869c-0.032,0.11-0.148,0.173-0.258,0.141
					C374.768,363.578,374.707,363.483,374.718,363.385z"/>
			</g>
		</g>
		<g>
			<path id="_x3C_Path_x3E__00000095307689961398150080000016928325458548256433_" style="fill:#9FCCFB;" d="M340.225,374.249
				c0,0-12.684-22.509,4.301-28.115c9.849-3.252-2.437-16.426,3.084-21.586c5.521-5.16,15.83-2.147,17.705-10.475
				c1.875-8.329,6.8-15.98,19.082-14.236c12.282,1.744,14.276-10.66,24.386-3.223c10.11,7.436,0.906,20.261-12.812,25.087
				c-13.718,4.826-3.378,16.786-17.156,20.096c-13.778,3.31-3.387,19.571-14.601,22.56
				C353.001,367.344,365.707,375.818,340.225,374.249z"/>
			<g id="_x3C_Path_x3E__00000085955307484436754920000000804873520068009859_">
				<path id="_x3C_Path_x3E__00000137849781656083270460000000057870441810193558_" style="fill:#FFFFFF;" d="M346.648,365.326
					c-0.009-0.019-0.016-0.038-0.021-0.06c-0.029-0.123-2.792-12.421,11.59-23.426c9.817-7.512,11.533-10.697,13.909-15.105
					c1.05-1.947,2.239-4.155,4.319-7.045c6.707-9.317,21.445-13.712,22.069-13.895c0.233-0.068,0.456,0.036,0.496,0.234
					c0.041,0.197-0.114,0.411-0.346,0.48c-0.149,0.043-15.015,4.479-21.517,13.511c-2.047,2.843-3.222,5.023-4.259,6.948
					c-2.339,4.34-4.186,7.767-14.172,15.408c-13.92,10.652-11.28,22.508-11.252,22.627c0.047,0.195-0.103,0.412-0.334,0.485
					C346.924,365.553,346.723,365.481,346.648,365.326z"/>
			</g>
		</g>
	</g>
	
		<line style="fill:none;stroke:#1C004F;stroke-width:0.5;stroke-linecap:round;stroke-miterlimit:10;" x1="82.363" y1="374.698" x2="413.995" y2="374.698"/>
	<g>
		<path style="fill:#556BFF;" d="M299.271,361.055H110.634c-3.358,0-6.08-2.722-6.08-6.08V188.933c0-3.358,2.722-6.08,6.08-6.08
			h188.637c3.358,0,6.08,2.722,6.08,6.08v166.042C305.351,358.333,302.629,361.055,299.271,361.055z"/>
		<path style="fill:#FFFFFF;" d="M286.32,347.143H123.585c-1.853,0-3.355-1.502-3.355-3.355V200.12c0-1.853,1.502-3.355,3.355-3.355
			H286.32c1.853,0,3.355,1.502,3.355,3.355v143.669C289.675,345.641,288.173,347.143,286.32,347.143z"/>
		<polygon style="fill:#556BFF;" points="144.157,374.447 128.996,374.447 124.664,360.778 147.58,360.778 		"/>
		<polygon style="fill:#556BFF;" points="278.87,374.445 263.708,374.445 259.377,360.778 282.293,360.778 		"/>
		<path style="fill:#E4F1FF;" d="M123.585,347.143H286.32c1.207,0,2.257-0.644,2.848-1.601l-25.388-22.076H149.372l-27.859,22.943
			C122.085,346.861,122.798,347.143,123.585,347.143z"/>
		<g>
			<ellipse style="fill:#9FCCFB;" cx="238.509" cy="335.447" rx="29.774" ry="6.526"/>
			
				<rect x="208.735" y="248.383" transform="matrix(-1 -1.224647e-16 1.224647e-16 -1 477.0183 583.9475)" style="fill:#9FCCFB;" width="59.548" height="87.182"/>
			<path style="fill:#8CC2F2;" d="M208.735,248.383c0,3.604,13.33,6.526,29.774,6.526c16.444,0,29.774-2.922,29.774-6.526
				c0-3.604-13.33-6.526-29.774-6.526C222.066,241.857,208.735,244.779,208.735,248.383z"/>
			<g>
				<defs>
					
						<rect id="SVGID_1_" x="208.735" y="249.917" transform="matrix(-1 -1.224647e-16 1.224647e-16 -1 477.0183 585.4819)" width="59.548" height="85.647"/>
				</defs>
				<clipPath id="SVGID_00000125604768453923153020000004277894484471201689_">
					<use xlink:href="#SVGID_1_"  style="overflow:visible;"/>
				</clipPath>
				
					<path style="clip-path:url(#SVGID_00000125604768453923153020000004277894484471201689_);fill:none;stroke:#FFFFFF;stroke-width:0.5;stroke-miterlimit:10;" d="
					M207.525,262.064c0,3.604,13.935,6.526,31.125,6.526c17.19,0,31.126-2.922,31.126-6.526"/>
				
					<path style="clip-path:url(#SVGID_00000125604768453923153020000004277894484471201689_);fill:none;stroke:#FFFFFF;stroke-width:0.5;stroke-miterlimit:10;" d="
					M207.525,277.882c0,3.604,13.935,6.526,31.125,6.526c17.19,0,31.126-2.922,31.126-6.526"/>
				
					<path style="clip-path:url(#SVGID_00000125604768453923153020000004277894484471201689_);fill:none;stroke:#FFFFFF;stroke-width:0.5;stroke-miterlimit:10;" d="
					M207.525,292.799c0,3.604,13.935,6.526,31.125,6.526c17.19,0,31.126-2.922,31.126-6.526"/>
				
					<path style="clip-path:url(#SVGID_00000125604768453923153020000004277894484471201689_);fill:none;stroke:#FFFFFF;stroke-width:0.5;stroke-miterlimit:10;" d="
					M207.525,307.104c0,3.604,13.935,6.526,31.125,6.526c17.19,0,31.126-2.922,31.126-6.526"/>
				
					<path style="clip-path:url(#SVGID_00000125604768453923153020000004277894484471201689_);fill:none;stroke:#FFFFFF;stroke-width:0.5;stroke-miterlimit:10;" d="
					M207.525,321.499c0,3.604,13.935,6.526,31.125,6.526c17.19,0,31.126-2.922,31.126-6.526"/>
			</g>
			
				<line style="fill:none;stroke:#81C0EF;stroke-width:0.5;stroke-linecap:round;stroke-miterlimit:10;" x1="214.819" y1="327.596" x2="214.819" y2="336.711"/>
			
				<line style="fill:none;stroke:#81C0EF;stroke-width:0.5;stroke-linecap:round;stroke-miterlimit:10;" x1="214.819" y1="313.151" x2="214.819" y2="323.23"/>
			
				<line style="fill:none;stroke:#81C0EF;stroke-width:0.5;stroke-linecap:round;stroke-miterlimit:10;" x1="214.819" y1="299.084" x2="214.819" y2="309.54"/>
			
				<line style="fill:none;stroke:#81C0EF;stroke-width:0.5;stroke-linecap:round;stroke-miterlimit:10;" x1="214.819" y1="284.208" x2="214.819" y2="294.664"/>
			
				<line style="fill:none;stroke:#81C0EF;stroke-width:0.5;stroke-linecap:round;stroke-miterlimit:10;" x1="214.819" y1="267.985" x2="214.819" y2="280.274"/>
			
				<line style="fill:none;stroke:#81C0EF;stroke-width:0.5;stroke-linecap:round;stroke-miterlimit:10;" x1="214.819" y1="255.424" x2="214.819" y2="263.32"/>
			
				<line style="fill:none;stroke:#81C0EF;stroke-width:0.5;stroke-linecap:round;stroke-miterlimit:10;" x1="220.451" y1="329.172" x2="220.451" y2="338.288"/>
			
				<line style="fill:none;stroke:#81C0EF;stroke-width:0.5;stroke-linecap:round;stroke-miterlimit:10;" x1="220.451" y1="314.728" x2="220.451" y2="324.807"/>
			
				<line style="fill:none;stroke:#81C0EF;stroke-width:0.5;stroke-linecap:round;stroke-miterlimit:10;" x1="220.451" y1="300.661" x2="220.451" y2="311.117"/>
			
				<line style="fill:none;stroke:#81C0EF;stroke-width:0.5;stroke-linecap:round;stroke-miterlimit:10;" x1="220.451" y1="285.785" x2="220.451" y2="296.241"/>
			
				<line style="fill:none;stroke:#81C0EF;stroke-width:0.5;stroke-linecap:round;stroke-miterlimit:10;" x1="220.451" y1="269.562" x2="220.451" y2="281.851"/>
			
				<line style="fill:none;stroke:#81C0EF;stroke-width:0.5;stroke-linecap:round;stroke-miterlimit:10;" x1="220.451" y1="257.001" x2="220.451" y2="264.897"/>
			
				<line style="fill:none;stroke:#81C0EF;stroke-width:0.5;stroke-linecap:round;stroke-miterlimit:10;" x1="226.759" y1="330.112" x2="226.759" y2="339.227"/>
			
				<line style="fill:none;stroke:#81C0EF;stroke-width:0.5;stroke-linecap:round;stroke-miterlimit:10;" x1="226.759" y1="315.667" x2="226.759" y2="325.746"/>
			
				<line style="fill:none;stroke:#81C0EF;stroke-width:0.5;stroke-linecap:round;stroke-miterlimit:10;" x1="226.759" y1="301.6" x2="226.759" y2="312.056"/>
			
				<line style="fill:none;stroke:#81C0EF;stroke-width:0.5;stroke-linecap:round;stroke-miterlimit:10;" x1="226.759" y1="286.724" x2="226.759" y2="297.181"/>
			
				<line style="fill:none;stroke:#81C0EF;stroke-width:0.5;stroke-linecap:round;stroke-miterlimit:10;" x1="226.759" y1="270.501" x2="226.759" y2="282.79"/>
			
				<line style="fill:none;stroke:#81C0EF;stroke-width:0.5;stroke-linecap:round;stroke-miterlimit:10;" x1="226.759" y1="257.94" x2="226.759" y2="265.836"/>
			
				<line style="fill:none;stroke:#81C0EF;stroke-width:0.5;stroke-linecap:round;stroke-miterlimit:10;" x1="262.863" y1="327.67" x2="262.863" y2="336.785"/>
			
				<line style="fill:none;stroke:#81C0EF;stroke-width:0.5;stroke-linecap:round;stroke-miterlimit:10;" x1="262.863" y1="313.225" x2="262.863" y2="323.304"/>
			
				<line style="fill:none;stroke:#81C0EF;stroke-width:0.5;stroke-linecap:round;stroke-miterlimit:10;" x1="262.863" y1="299.158" x2="262.863" y2="309.614"/>
			
				<line style="fill:none;stroke:#81C0EF;stroke-width:0.5;stroke-linecap:round;stroke-miterlimit:10;" x1="262.863" y1="284.283" x2="262.863" y2="294.739"/>
			
				<line style="fill:none;stroke:#81C0EF;stroke-width:0.5;stroke-linecap:round;stroke-miterlimit:10;" x1="262.863" y1="268.06" x2="262.863" y2="280.348"/>
			
				<line style="fill:none;stroke:#81C0EF;stroke-width:0.5;stroke-linecap:round;stroke-miterlimit:10;" x1="262.863" y1="255.498" x2="262.863" y2="263.395"/>
			
				<line style="fill:none;stroke:#81C0EF;stroke-width:0.5;stroke-linecap:round;stroke-miterlimit:10;" x1="256.584" y1="329.065" x2="256.584" y2="338.18"/>
			
				<line style="fill:none;stroke:#81C0EF;stroke-width:0.5;stroke-linecap:round;stroke-miterlimit:10;" x1="256.584" y1="314.621" x2="256.584" y2="324.699"/>
			
				<line style="fill:none;stroke:#81C0EF;stroke-width:0.5;stroke-linecap:round;stroke-miterlimit:10;" x1="256.584" y1="300.554" x2="256.584" y2="311.01"/>
			
				<line style="fill:none;stroke:#81C0EF;stroke-width:0.5;stroke-linecap:round;stroke-miterlimit:10;" x1="256.584" y1="285.678" x2="256.584" y2="296.134"/>
			
				<line style="fill:none;stroke:#81C0EF;stroke-width:0.5;stroke-linecap:round;stroke-miterlimit:10;" x1="256.584" y1="269.455" x2="256.584" y2="281.743"/>
			
				<line style="fill:none;stroke:#81C0EF;stroke-width:0.5;stroke-linecap:round;stroke-miterlimit:10;" x1="256.584" y1="256.894" x2="256.584" y2="264.79"/>
			
				<line style="fill:none;stroke:#81C0EF;stroke-width:0.5;stroke-linecap:round;stroke-miterlimit:10;" x1="249.607" y1="329.763" x2="249.607" y2="338.878"/>
			
				<line style="fill:none;stroke:#81C0EF;stroke-width:0.5;stroke-linecap:round;stroke-miterlimit:10;" x1="249.607" y1="315.318" x2="249.607" y2="325.397"/>
			
				<line style="fill:none;stroke:#81C0EF;stroke-width:0.5;stroke-linecap:round;stroke-miterlimit:10;" x1="249.607" y1="301.251" x2="249.607" y2="311.707"/>
			
				<line style="fill:none;stroke:#81C0EF;stroke-width:0.5;stroke-linecap:round;stroke-miterlimit:10;" x1="249.607" y1="286.376" x2="249.607" y2="296.832"/>
			
				<line style="fill:none;stroke:#81C0EF;stroke-width:0.5;stroke-linecap:round;stroke-miterlimit:10;" x1="249.607" y1="270.153" x2="249.607" y2="282.441"/>
			
				<line style="fill:none;stroke:#81C0EF;stroke-width:0.5;stroke-linecap:round;stroke-miterlimit:10;" x1="249.607" y1="257.591" x2="249.607" y2="265.488"/>
			
				<line style="fill:none;stroke:#81C0EF;stroke-width:0.5;stroke-linecap:round;stroke-miterlimit:10;" x1="242.457" y1="330.112" x2="242.457" y2="339.227"/>
			
				<line style="fill:none;stroke:#81C0EF;stroke-width:0.5;stroke-linecap:round;stroke-miterlimit:10;" x1="242.457" y1="315.667" x2="242.457" y2="325.746"/>
			
				<line style="fill:none;stroke:#81C0EF;stroke-width:0.5;stroke-linecap:round;stroke-miterlimit:10;" x1="242.457" y1="301.6" x2="242.457" y2="312.056"/>
			
				<line style="fill:none;stroke:#81C0EF;stroke-width:0.5;stroke-linecap:round;stroke-miterlimit:10;" x1="242.457" y1="286.724" x2="242.457" y2="297.181"/>
			
				<line style="fill:none;stroke:#81C0EF;stroke-width:0.5;stroke-linecap:round;stroke-miterlimit:10;" x1="242.457" y1="270.501" x2="242.457" y2="282.79"/>
			
				<line style="fill:none;stroke:#81C0EF;stroke-width:0.5;stroke-linecap:round;stroke-miterlimit:10;" x1="242.457" y1="257.94" x2="242.457" y2="265.836"/>
			
				<line style="fill:none;stroke:#81C0EF;stroke-width:0.5;stroke-linecap:round;stroke-miterlimit:10;" x1="234.782" y1="329.937" x2="234.782" y2="339.052"/>
			
				<line style="fill:none;stroke:#81C0EF;stroke-width:0.5;stroke-linecap:round;stroke-miterlimit:10;" x1="234.782" y1="315.493" x2="234.782" y2="325.572"/>
			
				<line style="fill:none;stroke:#81C0EF;stroke-width:0.5;stroke-linecap:round;stroke-miterlimit:10;" x1="234.782" y1="301.426" x2="234.782" y2="311.882"/>
			
				<line style="fill:none;stroke:#81C0EF;stroke-width:0.5;stroke-linecap:round;stroke-miterlimit:10;" x1="234.782" y1="286.55" x2="234.782" y2="297.006"/>
			
				<line style="fill:none;stroke:#81C0EF;stroke-width:0.5;stroke-linecap:round;stroke-miterlimit:10;" x1="234.782" y1="270.327" x2="234.782" y2="282.616"/>
			
				<line style="fill:none;stroke:#81C0EF;stroke-width:0.5;stroke-linecap:round;stroke-miterlimit:10;" x1="234.782" y1="257.766" x2="234.782" y2="265.662"/>
		</g>
		<path style="fill:#8CC2F2;" d="M119.816,202.944l-0.035,139.183c0,4.251,2.099,5.038,5.775,6.906l82.905,41.517V154.265
			l-84.311,41.407C120.599,197.416,119.816,198.863,119.816,202.944z"/>
		<path style="fill:#B7DAF9;" d="M208.462,154.265l19.846,4.872c3.904,0.959,6.662,4.579,6.662,8.746v208.673
			c0,4.11-2.684,7.696-6.518,8.709l-19.99,5.285V154.265z"/>
		<path style="fill:#E4F1FF;" d="M119.886,246.88h-3.287c-2.244,0-4.063-1.819-4.063-4.063v-25.613c0-2.244,1.819-4.063,4.063-4.063
			h3.287c2.244,0,4.063,1.819,4.063,4.063v25.613C123.949,245.061,122.13,246.88,119.886,246.88z"/>
		<path style="fill:#E4F1FF;" d="M119.776,330.087h-3.287c-2.244,0-4.063-1.819-4.063-4.063v-25.613
			c0-2.244,1.819-4.063,4.063-4.063h3.287c2.244,0,4.063,1.819,4.063,4.063v25.613C123.839,328.268,122.02,330.087,119.776,330.087z
			"/>
		<path style="fill:#5972EB;" d="M171.371,235.043h-14.216v73.593h14.216c7.341,0,13.292-16.474,13.292-36.797
			S178.712,235.043,171.371,235.043z"/>
		<ellipse style="fill:#FFFFFF;" cx="156.632" cy="271.909" rx="17.015" ry="36.479"/>
		<path style="fill:#5972EB;" d="M153.863,248.476h-11.149v46.733h11.149c5.758,0,10.425-10.461,10.425-23.366
			C164.288,258.937,159.621,248.476,153.863,248.476z"/>
		<ellipse style="fill:#4164E5;" cx="142.714" cy="271.842" rx="10.425" ry="23.366"/>
		
			<line style="fill:none;stroke:#FFFFFF;stroke-width:0.5;stroke-linecap:round;stroke-miterlimit:10;" x1="154.092" y1="191.952" x2="129.481" y2="204.595"/>
		<path style="fill:none;stroke:#FFFFFF;stroke-width:0.5;stroke-linecap:round;stroke-miterlimit:10;" d="M200.249,192.622v-10.205
			v-8.701c0-2.5-2.645-4.115-4.868-2.972l-20.326,10.441l-5.273,2.709"/>
		
			<line style="fill:none;stroke:#FFFFFF;stroke-width:0.5;stroke-linecap:round;stroke-miterlimit:10;" x1="200.249" y1="270.455" x2="200.249" y2="233.381"/>
		<path style="fill:none;stroke:#FFFFFF;stroke-width:0.5;stroke-linecap:round;stroke-miterlimit:10;" d="M166.848,358.19
			l14.137,7.405l14.135,7.404c2.333,1.222,5.129-0.47,5.129-3.103v-48.072v-36.628"/>
		
			<line style="fill:none;stroke:#FFFFFF;stroke-width:0.5;stroke-linecap:round;stroke-miterlimit:10;" x1="146.685" y1="347.629" x2="154.646" y2="351.8"/>
		<path style="fill:none;stroke:#FFFFFF;stroke-width:0.5;stroke-linecap:round;stroke-miterlimit:10;" d="M142.669,291.661
			c-2.705,0-5.064-4.048-6.306-10.044"/>
		<path style="fill:none;stroke:#FFFFFF;stroke-width:0.5;stroke-linecap:round;stroke-miterlimit:10;" d="M149.403,279.176
			c-0.41,2.824-1.051,5.328-1.86,7.339"/>
		<path style="fill:none;stroke:#FFFFFF;stroke-width:0.5;stroke-linecap:round;stroke-miterlimit:10;" d="M135.472,274.069
			c-0.028-0.707-0.043-1.426-0.043-2.154c0-10.906,3.241-19.746,7.239-19.746c1,0,1.952,0.553,2.818,1.552"/>
		<path style="fill:none;stroke:#FFFFFF;stroke-width:0.5;stroke-linecap:round;stroke-miterlimit:10;" d="M180.887,254.086
			c-1.258-6.527-3.207-11.881-5.576-15.316"/>
		<path style="fill:none;stroke:#FFFFFF;stroke-width:0.5;stroke-linecap:round;stroke-miterlimit:10;" d="M182.445,271.388
			c0-2.482-0.089-4.907-0.258-7.252"/>
		<path style="fill:none;stroke:#FFFFFF;stroke-width:0.5;stroke-linecap:round;stroke-miterlimit:10;" d="M179.462,294.619
			c0.762-2.586,1.399-5.465,1.886-8.565"/>
		<path style="fill:none;stroke:#FFFFFF;stroke-width:0.5;stroke-linecap:round;stroke-miterlimit:10;" d="M173.106,306.53
			c1.78-1.532,3.399-4.072,4.771-7.378"/>
	</g>
	<g>
		<g>
			<g>
				<g>
					<g>
						
							<ellipse transform="matrix(0.3706 -0.9288 0.9288 0.3706 12.9617 413.3417)" style="fill:#C5E3F9;" cx="311.473" cy="197.107" rx="31.657" ry="31.657"/>
					</g>
				</g>
			</g>
		</g>
		<g>
			<g>
				<g>
					<g>
						<path style="fill:#71B7E2;" d="M334.171,203.456c-3.852,12.721-17.285,19.911-30.007,16.059
							c-12.722-3.852-19.911-17.286-16.059-30.007c3.852-12.722,17.285-19.911,30.007-16.059
							C330.834,177.3,338.023,190.734,334.171,203.456z"/>
					</g>
				</g>
			</g>
		</g>
		<g>
			<g>
				<g>
					<g>
						<path style="fill:#FF725E;" d="M334.531,204.612c-3.8,12.55-17.053,19.644-29.604,15.843
							c-12.551-3.8-19.643-17.054-15.843-29.604c3.8-12.55,17.053-19.644,29.604-15.843
							C331.238,178.808,338.331,192.062,334.531,204.612z"/>
					</g>
				</g>
			</g>
		</g>
		<g>
			<g>
				<g>
					<g>
						<path style="fill:#B4D8F9;" d="M334.531,204.612c-3.8,12.55-17.053,19.644-29.604,15.843
							c-12.551-3.8-19.643-17.054-15.843-29.604c3.8-12.55,17.053-19.644,29.604-15.843
							C331.238,178.808,338.331,192.062,334.531,204.612z"/>
					</g>
				</g>
			</g>
		</g>
		<g>
			<g>
				<g>
					<g>
						<g>
							<g>
								<path style="fill:#71B7E2;" d="M313.309,196.036l1.76-5.814c0.01,0.002,0.019,0.006,0.028,0.008
									c0.974,0.423,1.939,1.009,2.846,1.741c0.728,0.709,1.171,1.351,1.171,1.351l0.132-0.156l1.531-1.822l0.352-0.419
									l-0.706-1.402l-0.567,0.073c-1.078-1.021-2.375-1.958-3.843-2.491l0.968-3.197l-0.753-1.104l-0.243,0.802l-1.366-0.414
									l-0.986,3.255c-4.624-0.928-7.532,0.99-8.422,3.928c-1.212,4.004,1.902,6.079,4.863,7.824l-1.744,5.761
									c-2.128-0.865-4.036-2.354-5.098-3.934l-2.177,2.517c1.105,1.75,3.563,3.5,6.333,4.528l-0.731,2.414l-1.13-0.321
									l0.893,1.104l2.362,0.715l0.977-3.226c4.662,0.909,7.589-0.972,8.479-3.91C319.451,199.845,316.271,197.781,313.309,196.036
									z M311.131,194.716c-1.523-0.996-2.569-2.004-2.151-3.387c0.384-1.267,1.562-2.042,3.703-1.74L311.131,194.716z
									 M315.071,190.218L315.071,190.218L315.071,190.218C315.071,190.218,315.071,190.218,315.071,190.218z M310.71,204.62
									l1.544-5.098c1.58,1.013,2.647,2.059,2.219,3.47C314.098,204.23,312.909,204.939,310.71,204.62z"/>
							</g>
						</g>
					</g>
				</g>
			</g>
		</g>
		<g>
			<g>
				<g>
					<g>
						<g>
							<path style="fill:#FFFFFF;" d="M309.022,206.674l-0.977,3.227l-2.362-0.715l0.968-3.198
								c-2.771-1.028-5.229-2.778-6.334-4.529l2.177-2.517c1.063,1.58,2.97,3.069,5.099,3.934l1.744-5.762
								c-2.962-1.746-6.076-3.821-4.864-7.825c0.89-2.939,3.798-4.857,8.423-3.928l0.986-3.255l2.362,0.715l-0.968,3.198
								c2.097,0.761,4.066,2.049,5.317,3.528l-2.062,2.552c-1.256-1.355-2.722-2.334-4.196-2.969l-1.762,5.819
								c2.962,1.746,6.143,3.81,4.931,7.814C316.613,205.702,313.684,207.583,309.022,206.674z M310.393,193.629l1.553-5.128
								c-2.141-0.302-3.319,0.473-3.703,1.741C307.824,191.624,308.87,192.633,310.393,193.629z M313.736,201.906
								c0.427-1.412-0.64-2.458-2.22-3.471l-1.544,5.099C312.172,203.854,313.361,203.145,313.736,201.906z"/>
						</g>
					</g>
				</g>
			</g>
		</g>
	</g>
	<ellipse style="fill:#E4F1FF;" cx="349.057" cy="415.269" rx="79.419" ry="15.742"/>
	<g>
		<polygon style="fill:#F7C2A0;" points="382.644,374.54 385.797,377.507 393.879,380.158 394.861,368.262 389.853,362.788 		"/>
		<path style="fill:#DE001D;" d="M385.474,377.114c0,0,4.741,2.189,9.387-8.852c0,0,7.136,2.474,12.123,1.753
			c4.987-0.722,4.088,9.688-1.429,14.525c-5.518,4.837-3.85,12.002-8.191,17.466c-4.341,5.464-15.991,10.037-15.969,5.704
			c0.022-4.333,7.301-17.35,4.239-22.629C382.573,379.802,385.474,377.114,385.474,377.114z"/>
		<polygon style="fill:#F7C2A0;" points="324.108,392.811 323.806,397.13 326.87,405.065 336.701,398.296 337.768,390.953 		"/>
		<path style="fill:#F7C2A0;" d="M334.783,134.453c0,0-6.233,35.353,10.604,36.207c16.837,0.854,19.79-15.808,19.79-15.808
			s5.489,1.59,5.785-3.305c0.256-4.232-2.592-5.285-3.748-2.87l-1.578-22.938l-16.797-1.395L334.783,134.453z"/>
		<path style="fill:#F7C2A0;" d="M365.176,154.852l-1.923,23.297l-2.521,2.866c-4.849,5.513-13.867,6.218-15.995-0.808v-2.663
			l0.359-11.021L365.176,154.852z"/>
		<path style="fill:#F18884;" d="M344.965,170.573c0,0,5.675,0.194,11.566-2.195c0,0-6.516,6.201-11.677,5.341L344.965,170.573z"/>
		<path style="fill:#1E004C;" d="M365.791,125.92c0,0-2.327-8.682-8.402-7.724c-6.075,0.958-8.775,3.396-17.392-0.014
			c-8.617-3.41-17.119,8.055-9.367,15.712c5.51,5.443,9.63,3.228,12.191,1.234c1.072-0.835,2.606-0.755,3.537,0.288
			c1.074,1.202,3.04,2.384,6.239,1.071c16.527-6.783-0.858,12.924,14.231,16.297C366.829,152.784,378.85,128.157,365.791,125.92z"/>
		<g>
			<g>
				<path style="fill:#1F2228;" d="M335.798,259.524c-1.903-0.114-3.606,1.166-4.021,3.027
					c-3.166,14.176-15.607,70.64-14.892,79.339c0.596,7.246,1.036,36.872,1.176,47.347c0.028,2.069,1.673,3.75,3.741,3.825
					l18.083,0.661c2.129,0.078,3.923-1.567,4.021-3.695c0.53-11.582,2.078-45.856,2.162-53.289c0.006-0.522,0.117-1.029,0.328-1.507
					c2.311-5.231,16.242-36.672,18.737-40.285c2.722-3.942,10.18-12.685,10.284-19.908c0.061-4.239-0.69-8.072-1.321-10.516
					c-0.423-1.636-1.844-2.813-3.53-2.914L335.798,259.524z"/>
			</g>
		</g>
		<g>
			<path style="fill:#1F2228;" d="M368.504,285.699l-7.563,43.063c-0.231,1.315,0.23,2.656,1.22,3.552l29.977,27.108
				c1.681,1.52,1.708,4.15,0.059,5.705l-11.322,10.676c-1.338,1.261-3.371,1.415-4.879,0.364
				c-7.988-5.57-31.999-22.444-36.55-27.144c-4.674-4.827-3.191-18.708-2.656-22.673c0.094-0.693,0.375-1.344,0.811-1.891
				L368.504,285.699z"/>
		</g>
		<g>
			<g>
				<path style="fill:#455A64;" d="M343.951,389.69c0.108-2.71,0.262-6.596,0.453-11.388c0.342-9.635,0.814-22.911,1.335-37.576
					c0.081-2.417,0.161-4.795,0.239-7.104l-0.018,0.069c8.876-17.749,16.184-32.455,19.242-38.716l-0.005,0.009
					c0.731-1.03,1.294-1.822,1.686-2.375c0.177-0.257,0.316-0.458,0.421-0.61c0.092-0.138,0.136-0.209,0.131-0.212
					c-0.006-0.003-0.061,0.061-0.164,0.193c-0.113,0.147-0.262,0.342-0.454,0.591c-0.407,0.544-0.99,1.324-1.749,2.339l-0.003,0.004
					l-0.003,0.006c-3.186,6.21-10.588,20.88-19.482,38.621l-0.017,0.033l-0.001,0.036c-0.079,2.309-0.16,4.687-0.243,7.104
					c-0.473,14.665-0.901,27.943-1.212,37.579c-0.135,4.794-0.243,8.681-0.319,11.392
					C343.759,391.014,343.889,391.018,343.951,389.69z"/>
			</g>
		</g>
		<g>
			<g>
				<g>
					<path style="fill:#F7C2A0;" d="M391.554,217.447c-0.761-3.273-2.603-6.176-4.414-9.006c-2.915,1.802-6.069,3.216-9.353,4.195
						l0.962,16.948c3.772,0.116,7.963-0.089,10.654-2.734C391.799,224.493,392.315,220.72,391.554,217.447z"/>
				</g>
			</g>
		</g>
		<g>
			<g>
				<g>
					<g>
						<path style="fill:#5469FF;" d="M379.55,187.6l-8.241,18.693c3.029,2.973,5.426,6.587,6.988,10.534
							c4.928-2.417,9.444-5.673,13.295-9.584C387.549,201.622,382.865,190.23,379.55,187.6z"/>
					</g>
				</g>
			</g>
		</g>
		<g>
			<g>
				<g>
					<g>
						<path style="fill:#5469FF;" d="M336.339,183.505l-7.793,62.27c-0.379,3.028-2.337,16.22,0.622,16.968
							c11.426,8.628,27.484,7.961,46.814,9.046c2.389,0.414,1.87-13.847,1.898-16.271c0.1-8.577,0.452-27.129,1.67-38.691
							c1.342-12.745,4.755-23.151,0-29.228c-4.755-6.077-13.053-10.318-13.053-10.318l-3.062-1.919c0,0-2.002,2.97-18.531,3.228
							l-1.471,0.714L336.339,183.505z"/>
					</g>
				</g>
			</g>
		</g>
		<g>
			<g>
				<g>
					<g>
						<path style="fill:#263238;" d="M350.415,188.738c-0.06,0.042-0.553-0.701-1.567-1.69c-1.004-0.988-2.594-2.187-4.614-2.935
							c-2.021-0.749-4.007-0.874-5.413-0.779c-1.414,0.09-2.271,0.332-2.289,0.262c-0.007-0.026,0.198-0.115,0.585-0.231
							c0.387-0.116,0.959-0.245,1.679-0.329c1.431-0.176,3.493-0.096,5.587,0.68c2.093,0.774,3.709,2.057,4.681,3.122
							c0.491,0.533,0.842,1.003,1.059,1.343C350.34,188.521,350.438,188.723,350.415,188.738z"/>
					</g>
				</g>
			</g>
		</g>
		<g>
			<g>
				<g>
					<path style="fill:#F7C2A0;" d="M324.167,218.245l-1.252,4.164l-23.727-10.266l-5.128,7.876c0,0,19.173,13.441,25.555,17.024
						c6.953,3.903,12.191,3.538,15.206-2.202c3.283-6.25,4.861-12.05,4.861-12.05L324.167,218.245z"/>
				</g>
			</g>
		</g>
		<g>
			<g>
				<g>
					<path style="fill:#F7C2A0;" d="M302.878,214.036l-3.135-2.166c-1.668-4.953-4.767-13.936-5.683-13.667
						c-1.009,0.296-1.428,1.182-1.138,3.091c0.693,4.573-0.443,6.588-3.114,5.984c-0.919-0.208-8.908-1.485-8.908-1.485
						s-2.205,1.263,0.011,3.422c0,0-1.078,2.817,1.864,3.498c0,0,0.367,3.191,2.576,3.322c0,0,2.36,1.318,7.321,3.152l3.98,2.388
						L302.878,214.036z"/>
				</g>
			</g>
		</g>
		<path style="fill:#DE001D;" d="M323.906,396.632c0,0,1.306,5.056,12.795,1.664c0,0,2.602,7.091,6.317,10.495
			c3.715,3.404-4.913,9.298-12.15,8.088c-7.237-1.21-11.728,4.617-18.706,4.715c-6.978,0.098-17.893-6.027-14.524-8.752
			c3.368-2.726,18.053-5.33,20.202-11.042C319.989,396.087,323.906,396.632,323.906,396.632z"/>
		<g>
			<path style="fill:none;stroke:#B70825;stroke-width:0.5;stroke-linecap:round;stroke-miterlimit:10;" d="M406.526,373.118
				c0,0,1.246,3.721-2.292,8.346c-3.537,4.625-5.849,9.767-7.562,16.164c-1.713,6.397-11.702,8.587-11.702,8.587"/>
			<path style="fill:none;stroke:#B70825;stroke-width:0.5;stroke-linecap:round;stroke-miterlimit:10;" d="M386.158,397.917
				c0,0,1.724-3.413,11.174-2.663"/>
			<path style="fill:none;stroke:#B70825;stroke-width:0.5;stroke-linecap:round;stroke-miterlimit:10;" d="M399.396,372.865
				c0,0-1.244,9.879-11.963,15.695"/>
			<path style="fill:none;stroke:#B70825;stroke-width:0.5;stroke-linecap:round;stroke-miterlimit:10;" d="M340.326,410.4
				c0,0-2.092,3.32-7.912,3.509c-5.82,0.189-11.263,1.654-17.3,4.377c-6.037,2.723-14.055-3.624-14.055-3.624"/>
			<path style="fill:none;stroke:#B70825;stroke-width:0.5;stroke-linecap:round;stroke-miterlimit:10;" d="M308.234,410.328
				c0,0,3.734-0.825,9.135,6.965"/>
			<path style="fill:none;stroke:#B70825;stroke-width:0.5;stroke-linecap:round;stroke-miterlimit:10;" d="M336.008,404.72
				c0,0-8.436,5.29-19.723,0.674"/>
		</g>
		<path style="fill:#F7C2A0;" d="M361.349,149.96c0,0,6.534-4.664,8.671-2.02c1.52,1.88-2.517,6.362-2.517,6.362l-6.023-0.593
			L361.349,149.96z"/>
		<g>
			<g>
				<g>
					<path style="fill:#5469FF;" d="M322.234,217.6l23.302,6.732c0.52,0.15,1.06-0.15,1.2-0.673
						c0.878-3.278,3.812-14.333,5.345-21.297c1.989-9.03,0.393-13.721-5.623-17.911c-1.504-1.048-3.07-1.57-4.574-1.765
						c-4.749-0.615-9.293,2.162-11.226,6.543c-1.069,2.421-2.42,6.034-4.008,11.393c-2.021,6.822-4.205,14.222-4.808,16.268
						C321.751,217.195,321.928,217.512,322.234,217.6z"/>
				</g>
			</g>
		</g>
		<g>
			<g>
				<g>
					<path style="fill:none;stroke:#FFFFFF;stroke-width:0.5;stroke-linecap:round;stroke-miterlimit:10;" d="M350.737,188.511
						c-1.035-1.471-2.453-2.788-4.279-4.06c-1.504-1.048-3.07-1.57-4.574-1.765"/>
					<path style="fill:none;stroke:#FFFFFF;stroke-width:0.5;stroke-linecap:round;stroke-miterlimit:10;" d="M352.081,202.362
						c0.816-3.706,1.029-6.682,0.579-9.191"/>
					<path style="fill:none;stroke:#FFFFFF;stroke-width:0.5;stroke-linecap:round;stroke-miterlimit:10;" d="M334.707,221.204
						l10.828,3.128c0.52,0.15,1.06-0.15,1.2-0.673c0.686-2.56,2.625-9.863,4.172-16.256"/>
					
						<line style="fill:none;stroke:#FFFFFF;stroke-width:0.5;stroke-linecap:round;stroke-miterlimit:10;" x1="322.234" y1="217.6" x2="330.069" y2="219.864"/>
				</g>
			</g>
		</g>
		<path style="fill:none;stroke:#FFFFFF;stroke-width:0.5;stroke-linecap:round;stroke-miterlimit:10;" d="M379.55,216.827
			c0,0,0.016-14.881-2.104-20.181"/>
		<path style="fill:none;stroke:#F18884;stroke-width:0.5;stroke-linecap:round;stroke-miterlimit:10;" d="M322.892,222.429
			c0,0,2.647,2.856,2.217,5.223"/>
		<path style="fill:none;stroke:#F18884;stroke-width:0.5;stroke-linecap:round;stroke-miterlimit:10;" d="M281.425,209.244
			c1.63,0.455,4.131,1.137,5.685,1.061"/>
		<path style="fill:none;stroke:#F18884;stroke-width:0.5;stroke-linecap:round;stroke-miterlimit:10;" d="M283.168,212.769
			c0,0,2.881,0.985,4.927,0.834"/>
	</g>
	<g>
		<g>
			<g>
				<g>
					<g>
						<g>
							
								<ellipse transform="matrix(0.2823 -0.9593 0.9593 0.2823 60.9455 311.5797)" style="fill:#B4D8F9;" cx="238.71" cy="115.058" rx="24.002" ry="24.002"/>
						</g>
					</g>
				</g>
			</g>
			<g>
				<g>
					<g>
						<g>
							<path style="fill:#71B7E2;" d="M256.579,115.25c-0.323,10.072-8.748,17.976-18.821,17.653
								c-10.073-0.322-17.975-8.748-17.653-18.821c0.323-10.072,8.748-17.976,18.821-17.653
								C248.998,96.752,256.901,105.178,256.579,115.25z"/>
						</g>
					</g>
				</g>
			</g>
			<g>
				<g>
					<g>
						<g>
							<path style="fill:#FF725E;" d="M257.069,116.027c-0.318,9.937-8.631,17.734-18.568,17.416
								c-9.937-0.318-17.734-8.631-17.416-18.568s8.631-17.734,18.568-17.416C249.591,97.777,257.388,106.09,257.069,116.027z"/>
						</g>
					</g>
				</g>
			</g>
			<g>
				<g>
					<g>
						<g>
							<path style="fill:#B4D8F9;" d="M257.069,116.027c-0.318,9.937-8.631,17.734-18.568,17.416
								c-9.937-0.318-17.734-8.631-17.416-18.568s8.631-17.734,18.568-17.416C249.591,97.777,257.388,106.09,257.069,116.027z"/>
						</g>
					</g>
				</g>
			</g>
			<g>
				<path style="fill:#71B7E2;" d="M238.281,119.366l0.657-2.828c0.025-0.107,0.114-0.201,0.223-0.237l2.301-0.746
					c0.11-0.036,0.199-0.13,0.223-0.237l0.477-2.054c0.043-0.184-0.114-0.316-0.302-0.255l-1.884,0.611
					c-0.188,0.061-0.344-0.072-0.302-0.255l1.814-7.811c0.034-0.144-0.057-0.265-0.202-0.27l-4.109-0.142
					c-0.146-0.005-0.291,0.108-0.323,0.253l-2.228,9.794c-0.025,0.108-0.113,0.203-0.224,0.238l-2.444,0.793
					c-0.11,0.036-0.199,0.13-0.223,0.237l-0.477,2.054c-0.043,0.184,0.114,0.316,0.302,0.255l2.044-0.663
					c0.187-0.061,0.344,0.071,0.302,0.254l-0.98,4.307c-0.033,0.144,0.058,0.264,0.202,0.269l12.456,0.429
					c0.145,0.005,0.29-0.108,0.323-0.252l0.681-2.934c0.034-0.144-0.057-0.265-0.202-0.27l-7.903-0.272
					C238.338,119.631,238.247,119.51,238.281,119.366z"/>
				<path style="fill:#FFFFFF;" d="M237.797,118.716l0.657-2.828c0.025-0.107,0.114-0.202,0.223-0.237l2.301-0.746
					c0.11-0.036,0.199-0.13,0.223-0.237l0.477-2.054c0.043-0.184-0.114-0.316-0.302-0.255l-1.884,0.611
					c-0.188,0.061-0.344-0.072-0.302-0.255l1.814-7.811c0.033-0.144-0.057-0.265-0.202-0.27l-4.109-0.142
					c-0.145-0.005-0.29,0.108-0.323,0.253l-2.228,9.794c-0.025,0.108-0.113,0.203-0.224,0.238l-2.444,0.793
					c-0.11,0.036-0.199,0.13-0.223,0.237l-0.477,2.054c-0.043,0.184,0.114,0.316,0.302,0.255l2.044-0.663
					c0.187-0.061,0.344,0.071,0.302,0.254l-0.98,4.308c-0.033,0.144,0.058,0.264,0.202,0.269l12.456,0.429
					c0.145,0.005,0.29-0.108,0.323-0.252l0.681-2.934c0.033-0.144-0.057-0.265-0.202-0.27l-7.903-0.272
					C237.854,118.981,237.763,118.86,237.797,118.716z"/>
			</g>
		</g>
		<path style="fill:#4E6CFC;" d="M277.158,152.436l4.965-12.958c0.112-0.292-0.091-0.606-0.404-0.623l-14.177-0.761
			c-0.384-0.02-0.631,0.406-0.418,0.723l2.334,3.475c-2.522,1.949-11.269,8.052-18.242,4.888c-0.422-0.191-0.835,0.279-0.589,0.67
			c2.026,3.228,8.529,10.23,23.612,1.561l2.098,3.124C276.545,152.847,277.023,152.789,277.158,152.436z"/>
		<path style="fill:#4E6CFC;" d="M253.148,78.001c0.392,0.248,0.865-0.162,0.675-0.583c-1.563-3.475-7.043-11.304-23.174-4.789
			L229,69.247c-0.164-0.337-0.646-0.345-0.828-0.014l-6.697,12.153c-0.151,0.274,0.007,0.613,0.314,0.672l13.939,2.7
			c0.378,0.073,0.681-0.315,0.514-0.658l-1.834-3.763C237.174,78.754,246.676,73.91,253.148,78.001z"/>
		<g>
			<g>
				<g>
					<g>
						<g>
							
								<ellipse transform="matrix(0.6912 -0.7227 0.7227 0.6912 4.9764 224.3611)" style="fill:#C5E3F9;" cx="264.999" cy="106.358" rx="24.002" ry="24.002"/>
						</g>
					</g>
				</g>
			</g>
			<g>
				<g>
					<g>
						<g>
							<path style="fill:#71B7E2;" d="M281.944,112.033c-3.403,9.485-13.85,14.416-23.336,11.013
								c-9.486-3.403-14.416-13.85-11.013-23.336c3.403-9.486,13.85-14.416,23.336-11.013
								C280.417,92.1,285.347,102.548,281.944,112.033z"/>
						</g>
					</g>
				</g>
			</g>
			<g>
				<g>
					<g>
						<g>
							<path style="fill:#FF725E;" d="M282.172,112.923c-3.357,9.358-13.664,14.223-23.022,10.865
								c-9.358-3.358-14.222-13.665-10.865-23.023c3.357-9.358,13.664-14.222,23.023-10.865
								C280.666,93.258,285.53,103.565,282.172,112.923z"/>
						</g>
					</g>
				</g>
			</g>
			<g>
				<g>
					<g>
						<g>
							<path style="fill:#B4D8F9;" d="M282.172,112.923c-3.357,9.358-13.664,14.223-23.022,10.865
								c-9.358-3.358-14.222-13.665-10.865-23.023c3.357-9.358,13.664-14.222,23.023-10.865
								C280.666,93.258,285.53,103.565,282.172,112.923z"/>
						</g>
					</g>
				</g>
			</g>
			<g>
				<path style="fill:#71B7E2;" d="M269.152,108.305c0.149,0.128,0.297,0.247,0.437,0.375c0.834,0.762,1.328,1.692,1.366,2.833
					c0.024,0.716-0.149,1.391-0.515,2.013c-0.726,1.233-1.826,1.849-3.228,1.978c-0.618,0.057-1.23,0.033-1.839-0.089
					c-0.221-0.044-0.443-0.084-0.661-0.138c-0.116-0.029-0.157,0.017-0.192,0.118c-0.213,0.607-0.431,1.213-0.648,1.819
					c-0.069,0.193-0.069,0.193-0.255,0.126c-0.417-0.149-0.835-0.299-1.252-0.448c-0.175-0.062-0.176-0.062-0.115-0.232
					c0.21-0.59,0.418-1.181,0.632-1.77c0.037-0.102,0.027-0.15-0.084-0.187c-0.352-0.117-0.701-0.241-1.049-0.369
					c-0.107-0.039-0.157-0.02-0.196,0.093c-0.203,0.584-0.414,1.165-0.622,1.747c-0.066,0.184-0.065,0.182-0.244,0.118
					c-0.425-0.153-0.849-0.308-1.276-0.454c-0.118-0.04-0.136-0.091-0.094-0.205c0.21-0.572,0.413-1.147,0.618-1.721
					c0.071-0.199,0.071-0.199-0.123-0.268c-1.064-0.38-2.126-0.762-3.191-1.138c-0.117-0.041-0.141-0.086-0.098-0.202
					c0.231-0.632,0.459-1.266,0.68-1.902c0.044-0.126,0.099-0.141,0.216-0.098c0.48,0.177,0.962,0.346,1.444,0.517
					c0.339,0.121,0.513,0.024,0.63-0.318c0.183-0.536,0.382-1.067,0.573-1.6c0.789-2.207,1.578-4.415,2.367-6.622
					c0.11-0.309,0.223-0.617,0.331-0.927c0.118-0.34,0.04-0.5-0.296-0.621c-0.482-0.172-0.962-0.348-1.446-0.514
					c-0.12-0.042-0.148-0.091-0.103-0.214c0.229-0.624,0.45-1.251,0.674-1.877c0.056-0.156,0.058-0.157,0.221-0.099
					c1.068,0.381,2.135,0.763,3.203,1.145c0.165,0.059,0.166,0.059,0.224-0.104c0.22-0.614,0.441-1.227,0.657-1.843
					c0.037-0.105,0.077-0.144,0.192-0.102c0.46,0.17,0.922,0.333,1.383,0.496c0.1,0.035,0.056,0.098,0.036,0.154
					c-0.22,0.618-0.442,1.236-0.662,1.854c-0.063,0.175-0.063,0.175,0.116,0.239c0.337,0.12,0.676,0.235,1.011,0.361
					c0.108,0.041,0.15,0.01,0.186-0.092c0.216-0.615,0.437-1.229,0.657-1.843c0.06-0.166,0.064-0.168,0.228-0.11
					c0.438,0.156,0.874,0.316,1.313,0.466c0.109,0.037,0.124,0.085,0.087,0.187c-0.234,0.645-0.464,1.292-0.695,1.938
					c-0.067,0.186-0.065,0.184,0.11,0.261c1.32,0.583,2.191,1.552,2.53,2.967c0.137,0.572,0.112,1.144-0.056,1.713
					c-0.142,0.479-0.341,0.927-0.656,1.316c-0.516,0.638-1.177,1.044-1.988,1.196C269.515,108.261,269.338,108.279,269.152,108.305z
					 M263.038,110.013c-0.227,0.634-0.452,1.268-0.681,1.902c-0.031,0.087-0.043,0.147,0.07,0.184
					c0.835,0.269,1.665,0.553,2.505,0.808c0.281,0.085,0.583,0.133,0.877,0.14c0.808,0.019,1.445-0.303,1.83-1.036
					c0.183-0.349,0.303-0.723,0.268-1.128c-0.061-0.713-0.443-1.239-1.027-1.601c-0.417-0.258-0.873-0.46-1.328-0.647
					c-0.531-0.219-1.08-0.396-1.621-0.591c-0.167-0.06-0.168-0.06-0.226,0.104C263.483,108.769,263.261,109.391,263.038,110.013z
					 M265.271,103.69c-0.189,0.529-0.376,1.06-0.57,1.588c-0.041,0.111-0.015,0.159,0.094,0.196c0.435,0.15,0.863,0.319,1.302,0.459
					c0.34,0.108,0.687,0.196,1.036,0.269c0.343,0.072,0.692,0.083,1.034-0.021c0.479-0.145,0.793-0.473,0.997-0.92
					c0.275-0.604,0.283-1.189-0.149-1.727c-0.315-0.393-0.736-0.659-1.192-0.85c-0.585-0.245-1.187-0.447-1.779-0.676
					c-0.126-0.049-0.17-0.011-0.21,0.105C265.649,102.64,265.459,103.165,265.271,103.69z"/>
				<path style="fill:#FFFFFF;" d="M269.475,107.412c0.149,0.128,0.297,0.247,0.437,0.375c0.833,0.762,1.328,1.692,1.366,2.833
					c0.024,0.716-0.149,1.391-0.516,2.013c-0.726,1.233-1.826,1.849-3.228,1.978c-0.617,0.057-1.23,0.032-1.839-0.089
					c-0.221-0.044-0.443-0.084-0.661-0.138c-0.116-0.029-0.157,0.017-0.192,0.118c-0.213,0.607-0.432,1.213-0.648,1.819
					c-0.069,0.193-0.069,0.193-0.255,0.126c-0.417-0.149-0.835-0.299-1.252-0.447c-0.175-0.062-0.176-0.062-0.115-0.232
					c0.21-0.59,0.418-1.181,0.632-1.77c0.037-0.102,0.027-0.15-0.084-0.187c-0.352-0.117-0.701-0.241-1.049-0.369
					c-0.107-0.039-0.157-0.02-0.196,0.093c-0.203,0.584-0.414,1.165-0.622,1.747c-0.066,0.183-0.065,0.182-0.244,0.118
					c-0.425-0.153-0.849-0.308-1.276-0.454c-0.118-0.04-0.136-0.091-0.094-0.205c0.21-0.572,0.413-1.147,0.618-1.721
					c0.071-0.199,0.071-0.199-0.123-0.268c-1.063-0.38-2.126-0.762-3.191-1.138c-0.117-0.041-0.141-0.086-0.098-0.202
					c0.232-0.632,0.459-1.266,0.68-1.902c0.044-0.126,0.099-0.141,0.216-0.098c0.48,0.177,0.962,0.346,1.444,0.517
					c0.34,0.121,0.513,0.024,0.63-0.318c0.183-0.536,0.382-1.067,0.573-1.6c0.789-2.207,1.578-4.415,2.367-6.622
					c0.11-0.309,0.223-0.617,0.331-0.927c0.118-0.34,0.04-0.5-0.296-0.621c-0.482-0.172-0.962-0.348-1.445-0.514
					c-0.12-0.042-0.148-0.092-0.103-0.214c0.229-0.624,0.45-1.251,0.674-1.877c0.056-0.156,0.058-0.157,0.221-0.099
					c1.068,0.381,2.135,0.763,3.203,1.145c0.165,0.059,0.166,0.059,0.224-0.104c0.22-0.614,0.441-1.227,0.657-1.843
					c0.037-0.105,0.077-0.144,0.192-0.102c0.46,0.17,0.922,0.333,1.384,0.496c0.1,0.035,0.056,0.097,0.036,0.154
					c-0.22,0.618-0.441,1.236-0.662,1.854c-0.063,0.175-0.063,0.176,0.116,0.239c0.337,0.12,0.676,0.235,1.011,0.361
					c0.108,0.041,0.15,0.01,0.186-0.092c0.216-0.615,0.437-1.229,0.657-1.843c0.06-0.166,0.064-0.169,0.228-0.11
					c0.438,0.156,0.874,0.316,1.313,0.467c0.109,0.037,0.124,0.085,0.087,0.187c-0.234,0.645-0.464,1.292-0.695,1.938
					c-0.067,0.187-0.065,0.184,0.11,0.26c1.319,0.583,2.191,1.552,2.53,2.967c0.137,0.572,0.112,1.144-0.056,1.713
					c-0.142,0.479-0.341,0.928-0.656,1.316c-0.516,0.638-1.177,1.044-1.988,1.196C269.838,107.368,269.661,107.386,269.475,107.412z
					 M263.361,109.12c-0.227,0.634-0.452,1.268-0.681,1.902c-0.031,0.087-0.043,0.147,0.07,0.184
					c0.835,0.269,1.665,0.553,2.505,0.808c0.281,0.086,0.583,0.133,0.878,0.14c0.808,0.019,1.445-0.303,1.83-1.036
					c0.183-0.349,0.303-0.723,0.268-1.128c-0.062-0.713-0.443-1.239-1.027-1.601c-0.417-0.258-0.873-0.459-1.328-0.647
					c-0.531-0.219-1.08-0.396-1.621-0.591c-0.167-0.06-0.168-0.06-0.226,0.104C263.806,107.876,263.583,108.498,263.361,109.12z
					 M265.594,102.797c-0.189,0.529-0.376,1.06-0.57,1.588c-0.041,0.111-0.015,0.159,0.094,0.196
					c0.435,0.15,0.863,0.319,1.301,0.459c0.34,0.108,0.687,0.195,1.036,0.269c0.343,0.072,0.692,0.083,1.033-0.021
					c0.479-0.146,0.793-0.473,0.997-0.92c0.275-0.604,0.283-1.189-0.149-1.726c-0.315-0.393-0.736-0.659-1.192-0.851
					c-0.585-0.245-1.187-0.447-1.779-0.675c-0.126-0.049-0.17-0.011-0.21,0.105C265.972,101.747,265.781,102.272,265.594,102.797z"
					/>
			</g>
		</g>
	</g>
	<g>
		<path id="Cloud" style="fill:#556BFF;" d="M164.955,137.538c-0.252,0-0.499,0.016-0.746,0.033
			c-0.824-5.865-5.849-10.383-11.941-10.383c-1.653,0-3.228,0.334-4.663,0.936c-1.893-5.581-7.164-9.603-13.386-9.603
			c-7.812,0-14.144,6.332-14.144,14.144c-5.865,0-10.62,4.755-10.62,10.62c0,5.865,4.755,10.62,10.62,10.62l44.88,0.045
			c5.188,0,9.394-3.674,9.394-8.205C174.349,141.212,170.143,137.538,164.955,137.538z"/>
		<g>
			<path style="fill:#FFFFFF;" d="M141.828,154.055c-0.188,4.831-4.16,8.718-9.042,8.751c-0.109,0.001-0.217-0.001-0.325-0.004
				c-1.089-0.031-2.132-0.254-3.095-0.638c-0.963-0.384-1.846-0.927-2.616-1.598c-0.196-0.17-0.384-0.348-0.565-0.535
				c-0.822-0.85-1.482-1.857-1.925-2.975c-0.107-0.268-0.202-0.543-0.283-0.822c-0.192-0.658-0.31-1.348-0.348-2.058
				c0.188-4.831,4.16-8.72,9.043-8.752c0.617-0.004,1.222,0.054,1.807,0.169c0.298,0.058,0.592,0.131,0.88,0.218
				c1.176,0.354,2.252,0.941,3.176,1.706c0.199,0.165,0.392,0.339,0.578,0.522c0.72,0.707,1.324,1.533,1.779,2.446
				c0.443,0.891,0.744,1.862,0.876,2.887C141.796,153.597,141.816,153.825,141.828,154.055z"/>
			<path style="fill:#9FCCFB;" d="M140.903,154.061c-0.169,4.34-3.737,7.832-8.123,7.861c-0.098,0.001-0.195-0.001-0.292-0.004
				c-0.979-0.028-1.915-0.228-2.781-0.573c-0.866-0.345-1.659-0.833-2.35-1.436c-0.176-0.153-0.345-0.313-0.508-0.481
				c-0.738-0.764-1.331-1.669-1.729-2.673c-0.096-0.24-0.181-0.487-0.254-0.738c-0.173-0.592-0.279-1.211-0.312-1.849
				c0.169-4.34,3.737-7.833,8.123-7.862c0.555-0.004,1.097,0.049,1.623,0.151c0.267,0.052,0.532,0.118,0.79,0.196
				c1.056,0.318,2.023,0.845,2.853,1.533c0.179,0.148,0.352,0.305,0.519,0.469c0.647,0.635,1.19,1.377,1.598,2.198
				c0.398,0.8,0.669,1.673,0.787,2.594C140.874,153.649,140.892,153.855,140.903,154.061z"/>
			<g>
				<path style="fill:#FFFFFF;" d="M133.56,157.688l0.007,1.106l-1.405,0.009l-0.007-1.057c-0.997-0.053-1.966-0.316-2.566-0.681
					l0.746-1.719c0.66,0.384,1.539,0.628,2.307,0.623c0.668-0.004,0.906-0.146,0.904-0.385c-0.006-0.877-3.858-0.144-3.875-2.745
					c-0.007-1.126,0.804-2.079,2.437-2.319l-0.007-1.087l1.405-0.009l0.007,1.066c0.738,0.065,1.457,0.249,2.027,0.565l-0.696,1.709
					c-0.69-0.344-1.339-0.509-1.947-0.505c-0.688,0.005-0.906,0.205-0.904,0.444c0.006,0.837,3.858,0.114,3.875,2.686
					C135.874,156.467,135.103,157.409,133.56,157.688z"/>
			</g>
		</g>
	</g>
</g>
</svg>
